<svg width="125" height="40" viewBox="0 0 125 40" fill="none" xmlns="http://www.w3.org/2000/svg">
<path d="M65.8562 10.4552C65.8562 11.8405 64.7083 12.974 63.3052 12.974C61.9021 12.974 60.7542 11.8405 60.7542 10.4552C60.7542 9.06985 61.8384 7.93639 63.3052 7.93639C64.772 7.96788 65.8562 9.10134 65.8562 10.4552ZM55.397 15.4928C55.397 15.7132 55.397 16.1225 55.397 16.1225C55.397 16.1225 54.1853 14.5797 51.6024 14.5797C47.3613 14.5797 44.0131 17.7912 44.0131 22.1991C44.0131 26.607 47.2975 29.8184 51.6024 29.8184C54.2172 29.8184 55.397 28.2442 55.397 28.2442V28.9054C55.397 29.2202 55.6202 29.4406 55.9391 29.4406H59.096V14.9575C59.096 14.9575 56.1942 14.9575 55.9391 14.9575C55.6202 14.9575 55.397 15.2409 55.397 15.4928ZM55.397 24.7808C54.8231 25.6309 53.6432 26.3551 52.2401 26.3551C49.7529 26.3551 47.8396 24.8123 47.8396 22.1991C47.8396 19.5858 49.7529 18.0431 52.2401 18.0431C53.6113 18.0431 54.8549 18.7987 55.397 19.6173V24.7808ZM61.4557 14.9575H65.2185V29.4406H61.4557V14.9575ZM117.419 14.5797C114.836 14.5797 113.624 16.1225 113.624 16.1225V7.99937H109.861V29.4721C109.861 29.4721 112.763 29.4721 113.018 29.4721C113.337 29.4721 113.56 29.1887 113.56 28.9368V28.2757C113.56 28.2757 114.772 29.8499 117.355 29.8499C121.596 29.8499 124.944 26.607 124.944 22.2306C124.976 17.8227 121.628 14.5797 117.419 14.5797ZM116.813 26.3236C115.378 26.3236 114.23 25.5994 113.656 24.7493V19.5858C114.23 18.8302 115.505 18.0116 116.813 18.0116C119.3 18.0116 121.213 19.5543 121.213 22.1676C121.213 24.7808 119.3 26.3236 116.813 26.3236ZM107.948 20.8452V29.4721H104.185V21.286C104.185 18.8932 103.42 17.9171 101.284 17.9171C100.136 17.9171 98.9876 18.4838 98.2542 19.3339V29.4406H94.4914V14.9575H97.457C97.7759 14.9575 97.9991 15.2409 97.9991 15.4928V16.1225C99.0833 14.989 100.55 14.5797 101.985 14.5797C103.611 14.5797 104.982 15.052 106.099 15.9651C107.438 17.0355 107.948 18.4209 107.948 20.8452ZM85.4034 14.5797C82.8205 14.5797 81.6088 16.1225 81.6088 16.1225V7.99937H77.846V29.4721C77.846 29.4721 80.7478 29.4721 81.0029 29.4721C81.3218 29.4721 81.545 29.1887 81.545 28.9368V28.2757C81.545 28.2757 82.7567 29.8499 85.3396 29.8499C89.5807 29.8499 92.9289 26.607 92.9289 22.2306C92.9927 17.8227 89.6764 14.5797 85.4034 14.5797ZM84.7975 26.3236C83.3626 26.3236 82.2146 25.5994 81.6407 24.7493V19.5858C82.2146 18.8302 83.4901 18.0116 84.7975 18.0116C87.2848 18.0116 89.198 19.5543 89.198 22.1676C89.198 24.7808 87.2848 26.3236 84.7975 26.3236ZM74.6253 14.5797C75.7733 14.5797 76.3473 14.7686 76.3473 14.7686V18.2005C76.3473 18.2005 73.2223 17.1615 71.2771 19.3654V29.5036H67.5144V14.9575C67.5144 14.9575 70.4162 14.9575 70.6713 14.9575C70.9901 14.9575 71.2134 15.2409 71.2134 15.4928V16.1225C71.9468 15.3039 73.4774 14.5797 74.6253 14.5797ZM35.7223 28.1497C35.531 27.6774 35.3396 27.1737 35.1483 26.7644C34.8294 26.0717 34.5105 25.4105 34.2554 24.8123L34.2236 24.7808C31.545 18.9876 28.6432 13.1314 25.582 7.36967L25.4544 7.14927C25.1355 6.58254 24.8167 5.95285 24.5297 5.32315C24.147 4.63048 23.7644 3.90632 23.1266 3.21365C21.883 1.67089 20.0973 0.820801 18.184 0.820801C16.2389 0.820801 14.485 1.67089 13.1776 3.1192C12.6037 3.81187 12.1572 4.53602 11.7746 5.22869C11.4557 5.85839 11.1368 6.4566 10.8498 7.05482L10.7223 7.27521C7.72483 13.0684 4.79116 18.9246 2.0807 24.6864L2.04881 24.7493C1.76182 25.379 1.47483 26.0087 1.15596 26.7014C0.96463 27.1107 0.773303 27.583 0.581977 28.0868C0.0717728 29.5036 -0.087666 30.8574 0.103661 32.2428C0.518201 35.1394 2.49524 37.5637 5.17381 38.6342C6.19422 39.0435 7.24652 39.2639 8.3307 39.2639C8.64958 39.2639 9.03223 39.2324 9.35111 39.2009C10.6266 39.0435 11.9659 38.6342 13.2414 37.8786C14.8358 36.997 16.3664 35.7061 18.0884 33.88C19.8103 35.7376 21.3728 36.997 22.9353 37.8786C24.2108 38.6027 25.5501 39.0435 26.8256 39.2009C27.1445 39.2324 27.5271 39.2639 27.846 39.2639C28.9302 39.2639 30.0463 39.075 31.0029 38.6342C33.7452 37.5637 35.6585 35.0764 36.073 32.2428C36.3919 30.9204 36.2325 29.5665 35.7223 28.1497ZM18.1202 30.1333C16.0157 27.52 14.6445 25.0327 14.1662 22.9547C13.9748 22.0731 13.9429 21.286 14.0386 20.5933C14.1024 19.9636 14.3575 19.4284 14.6764 18.9876C15.4098 17.9486 16.6534 17.2874 18.1202 17.2874C19.5871 17.2874 20.8626 17.9171 21.5641 18.9876C21.883 19.4599 22.1062 19.9951 22.2019 20.5933C22.3294 21.286 22.2656 22.1046 22.0743 22.9547C21.596 25.0327 20.2248 27.4885 18.1202 30.1333ZM33.6815 31.9594C33.3945 33.9744 32.0552 35.7061 30.1419 36.4617C29.2172 36.8396 28.1968 36.9655 27.1764 36.8396C26.1878 36.7136 25.2312 36.4303 24.2108 35.832C22.8077 35.0764 21.4047 33.88 19.7465 32.0853C22.3294 28.9683 23.8919 26.1032 24.4659 23.5529C24.7529 22.3565 24.7848 21.286 24.6572 20.2785C24.4978 19.3025 24.147 18.4209 23.6049 17.6652C22.3932 15.9336 20.3524 14.9261 18.0884 14.9261C15.8243 14.9261 13.7835 15.9651 12.5718 17.6652C12.0297 18.4209 11.6789 19.3339 11.5195 20.2785C11.36 21.286 11.3919 22.388 11.7108 23.5529C12.2848 26.1032 13.9111 28.9998 16.4302 32.1168C14.8358 33.88 13.4009 35.0764 11.9659 35.8635C10.9455 36.4303 9.98886 36.7451 9.00034 36.871C7.94805 36.997 6.92764 36.8396 6.03478 36.4932C4.12152 35.7376 2.75034 33.9744 2.49524 31.9909C2.36769 31.0149 2.46335 30.0703 2.84601 28.9998C2.97356 28.622 3.16489 28.2442 3.35621 27.7719C3.6432 27.1422 3.93019 26.5125 4.24907 25.8513L4.28096 25.7884C6.95953 20.0581 9.86131 14.1704 12.8588 8.47164L12.9863 8.25124C13.3052 7.68452 13.6241 7.05482 13.9111 6.48809C14.2299 5.85839 14.5807 5.29166 14.9952 4.7879C15.8243 3.87484 16.9085 3.37108 18.1202 3.37108C19.332 3.37108 20.4162 3.87484 21.2452 4.7879C21.6598 5.29166 22.0105 5.85839 22.3294 6.48809C22.6483 7.05482 22.9672 7.68452 23.2542 8.25124L23.3817 8.47164C26.3473 14.2019 29.2491 20.0896 31.9276 25.8198V25.8513C32.2465 26.481 32.5016 27.1737 32.8205 27.7719C33.0118 28.2442 33.2031 28.622 33.3307 28.9998C33.7134 29.9758 33.8409 30.9519 33.6815 31.9594Z" fill="#244D4D"/>
</svg>
