<svg width="28" height="29" viewBox="0 0 28 29" fill="none" xmlns="http://www.w3.org/2000/svg">
<circle cx="14" cy="14.4663" r="14" fill="#FFB624"/>
<g clip-path="url(#clip0_10075_424)">
<path d="M21.7821 13.9402L17.0208 9.17881C16.7303 8.88831 16.2591 8.88831 15.9686 9.17881C15.6781 9.46937 15.6781 9.94039 15.9686 10.231L19.4599 13.7223H6.74396C6.33312 13.7223 6 14.0554 6 14.4662C6 14.877 6.33312 15.2102 6.74396 15.2102H19.4599L15.9688 18.7015C15.6782 18.9921 15.6782 19.4631 15.9688 19.7536C16.114 19.8988 16.3044 19.9715 16.4948 19.9715C16.6852 19.9715 16.8756 19.8988 17.0209 19.7536L21.7821 14.9923C22.0727 14.7017 22.0727 14.2307 21.7821 13.9402Z" fill="white"/>
</g>
<defs>
<clipPath id="clip0_10075_424">
<rect width="16" height="16" fill="white" transform="translate(6 6.46631)"/>
</clipPath>
</defs>
</svg>
